<?xml version="1.0" encoding="utf-8" standalone="no"?>
<!DOCTYPE svg PUBLIC "-//W3C//DTD SVG 1.1//EN"
  "http://www.w3.org/Graphics/SVG/1.1/DTD/svg11.dtd">
<!-- Created with matplotlib (http://matplotlib.org/) -->
<svg height="720pt" version="1.1" viewBox="0 0 720 720" width="720pt" xmlns="http://www.w3.org/2000/svg" xmlns:xlink="http://www.w3.org/1999/xlink">
 <defs>
  <style type="text/css">
*{stroke-linecap:butt;stroke-linejoin:round;}
  </style>
 </defs>
 <g id="figure_1">
  <g id="patch_1">
   <path d="M 0 720 
L 720 720 
L 720 0 
L 0 0 
z
" style="fill:#ffffff;"/>
  </g>
  <g id="axes_1">
   <g id="patch_2">
    <path d="M 90 630 
L 648 630 
L 648 86.4 
L 90 86.4 
z
" style="fill:#ffffff;"/>
   </g>
   <g id="PathCollection_1">
    <defs>
     <path d="M 0 3 
C 0.795609 3 1.55874 2.683901 2.12132 2.12132 
C 2.683901 1.55874 3 0.795609 3 0 
C 3 -0.795609 2.683901 -1.55874 2.12132 -2.12132 
C 1.55874 -2.683901 0.795609 -3 0 -3 
C -0.795609 -3 -1.55874 -2.683901 -2.12132 -2.12132 
C -2.683901 -1.55874 -3 -0.795609 -3 0 
C -3 0.795609 -2.683901 1.55874 -2.12132 2.12132 
C -1.55874 2.683901 -0.795609 3 0 3 
z
" id="mc41b0897ce" style="stroke:#008000;"/>
    </defs>
    <g clip-path="url(#p713c3e34ff)">
     <use style="fill:#008000;stroke:#008000;" x="116.135159" xlink:href="#mc41b0897ce" y="203.174496"/>
     <use style="fill:#008000;stroke:#008000;" x="117.566677" xlink:href="#mc41b0897ce" y="267.339214"/>
     <use style="fill:#008000;stroke:#008000;" x="125.00655" xlink:href="#mc41b0897ce" y="332.517671"/>
     <use style="fill:#008000;stroke:#008000;" x="139.149064" xlink:href="#mc41b0897ce" y="397.798828"/>
     <use style="fill:#008000;stroke:#008000;" x="164.618778" xlink:href="#mc41b0897ce" y="458.179323"/>
     <use style="fill:#008000;stroke:#008000;" x="204.298285" xlink:href="#mc41b0897ce" y="510.563156"/>
     <use style="fill:#008000;stroke:#008000;" x="252.744959" xlink:href="#mc41b0897ce" y="556.089727"/>
     <use style="fill:#008000;stroke:#008000;" x="307.919331" xlink:href="#mc41b0897ce" y="592.77634"/>
     <use style="fill:#008000;stroke:#008000;" x="372.011372" xlink:href="#mc41b0897ce" y="604.514253"/>
     <use style="fill:#008000;stroke:#008000;" x="436.294748" xlink:href="#mc41b0897ce" y="590.900743"/>
     <use style="fill:#008000;stroke:#008000;" x="490.759778" xlink:href="#mc41b0897ce" y="552.635482"/>
     <use style="fill:#008000;stroke:#008000;" x="538.55861" xlink:href="#mc41b0897ce" y="505.834263"/>
     <use style="fill:#008000;stroke:#008000;" x="577.035824" xlink:href="#mc41b0897ce" y="452.028484"/>
     <use style="fill:#008000;stroke:#008000;" x="600.422067" xlink:href="#mc41b0897ce" y="390.320425"/>
     <use style="fill:#008000;stroke:#008000;" x="612.057382" xlink:href="#mc41b0897ce" y="324.156255"/>
     <use style="fill:#008000;stroke:#008000;" x="616.475994" xlink:href="#mc41b0897ce" y="257.901982"/>
     <use style="fill:#008000;stroke:#008000;" x="615.219145" xlink:href="#mc41b0897ce" y="193.217919"/>
     <use style="fill:#008000;stroke:#008000;" x="160.990787" xlink:href="#mc41b0897ce" y="151.85069"/>
     <use style="fill:#008000;stroke:#008000;" x="191.224896" xlink:href="#mc41b0897ce" y="130.182236"/>
     <use style="fill:#008000;stroke:#008000;" x="230.97707" xlink:href="#mc41b0897ce" y="124.46317"/>
     <use style="fill:#008000;stroke:#008000;" x="271.965761" xlink:href="#mc41b0897ce" y="130.386611"/>
     <use style="fill:#008000;stroke:#008000;" x="310.153359" xlink:href="#mc41b0897ce" y="144.329315"/>
     <use style="fill:#008000;stroke:#008000;" x="413.386678" xlink:href="#mc41b0897ce" y="141.884589"/>
     <use style="fill:#008000;stroke:#008000;" x="451.408997" xlink:href="#mc41b0897ce" y="126.022411"/>
     <use style="fill:#008000;stroke:#008000;" x="492.453799" xlink:href="#mc41b0897ce" y="118.3946"/>
     <use style="fill:#008000;stroke:#008000;" x="533.053207" xlink:href="#mc41b0897ce" y="122.588959"/>
     <use style="fill:#008000;stroke:#008000;" x="564.483664" xlink:href="#mc41b0897ce" y="143.324315"/>
     <use style="fill:#008000;stroke:#008000;" x="363.184815" xlink:href="#mc41b0897ce" y="194.715564"/>
     <use style="fill:#008000;stroke:#008000;" x="363.986825" xlink:href="#mc41b0897ce" y="238.669032"/>
     <use style="fill:#008000;stroke:#008000;" x="364.620166" xlink:href="#mc41b0897ce" y="280.789996"/>
     <use style="fill:#008000;stroke:#008000;" x="365.504289" xlink:href="#mc41b0897ce" y="323.361417"/>
     <use style="fill:#008000;stroke:#008000;" x="310.947592" xlink:href="#mc41b0897ce" y="350.807277"/>
     <use style="fill:#008000;stroke:#008000;" x="336.963535" xlink:href="#mc41b0897ce" y="361.437792"/>
     <use style="fill:#008000;stroke:#008000;" x="366.580414" xlink:href="#mc41b0897ce" y="368.692352"/>
     <use style="fill:#008000;stroke:#008000;" x="396.218292" xlink:href="#mc41b0897ce" y="360.371739"/>
     <use style="fill:#008000;stroke:#008000;" x="421.941676" xlink:href="#mc41b0897ce" y="349.033897"/>
     <use style="fill:#008000;stroke:#008000;" x="208.230724" xlink:href="#mc41b0897ce" y="202.008154"/>
     <use style="fill:#008000;stroke:#008000;" x="236.98648" xlink:href="#mc41b0897ce" y="186.243855"/>
     <use style="fill:#008000;stroke:#008000;" x="269.239948" xlink:href="#mc41b0897ce" y="186.674904"/>
     <use style="fill:#008000;stroke:#008000;" x="297.658978" xlink:href="#mc41b0897ce" y="206.977282"/>
     <use style="fill:#008000;stroke:#008000;" x="267.844541" xlink:href="#mc41b0897ce" y="212.933509"/>
     <use style="fill:#008000;stroke:#008000;" x="236.000023" xlink:href="#mc41b0897ce" y="212.521927"/>
     <use style="fill:#008000;stroke:#008000;" x="430.067669" xlink:href="#mc41b0897ce" y="204.319623"/>
     <use style="fill:#008000;stroke:#008000;" x="458.157306" xlink:href="#mc41b0897ce" y="182.720781"/>
     <use style="fill:#008000;stroke:#008000;" x="490.431329" xlink:href="#mc41b0897ce" y="181.281356"/>
     <use style="fill:#008000;stroke:#008000;" x="519.909594" xlink:href="#mc41b0897ce" y="196.238945"/>
     <use style="fill:#008000;stroke:#008000;" x="492.291797" xlink:href="#mc41b0897ce" y="207.450943"/>
     <use style="fill:#008000;stroke:#008000;" x="460.535558" xlink:href="#mc41b0897ce" y="209.074974"/>
     <use style="fill:#008000;stroke:#008000;" x="257.103904" xlink:href="#mc41b0897ce" y="414.869115"/>
     <use style="fill:#008000;stroke:#008000;" x="297.046414" xlink:href="#mc41b0897ce" y="404.582439"/>
     <use style="fill:#008000;stroke:#008000;" x="339.213786" xlink:href="#mc41b0897ce" y="400.114033"/>
     <use style="fill:#008000;stroke:#008000;" x="367.884375" xlink:href="#mc41b0897ce" y="405.706713"/>
     <use style="fill:#008000;stroke:#008000;" x="396.483573" xlink:href="#mc41b0897ce" y="398.964024"/>
     <use style="fill:#008000;stroke:#008000;" x="439.540123" xlink:href="#mc41b0897ce" y="402.057253"/>
     <use style="fill:#008000;stroke:#008000;" x="480.269755" xlink:href="#mc41b0897ce" y="410.211401"/>
     <use style="fill:#008000;stroke:#008000;" x="444.861691" xlink:href="#mc41b0897ce" y="456.190117"/>
     <use style="fill:#008000;stroke:#008000;" x="403.256326" xlink:href="#mc41b0897ce" y="481.51026"/>
     <use style="fill:#008000;stroke:#008000;" x="369.331615" xlink:href="#mc41b0897ce" y="486.401941"/>
     <use style="fill:#008000;stroke:#008000;" x="335.632963" xlink:href="#mc41b0897ce" y="482.764355"/>
     <use style="fill:#008000;stroke:#008000;" x="293.738983" xlink:href="#mc41b0897ce" y="458.932997"/>
     <use style="fill:#008000;stroke:#008000;" x="269.645231" xlink:href="#mc41b0897ce" y="418.482231"/>
     <use style="fill:#008000;stroke:#008000;" x="338.426332" xlink:href="#mc41b0897ce" y="420.525258"/>
     <use style="fill:#008000;stroke:#008000;" x="368.152378" xlink:href="#mc41b0897ce" y="423.506566"/>
     <use style="fill:#008000;stroke:#008000;" x="397.970981" xlink:href="#mc41b0897ce" y="419.36639"/>
     <use style="fill:#008000;stroke:#008000;" x="467.760039" xlink:href="#mc41b0897ce" y="414.414981"/>
     <use style="fill:#008000;stroke:#008000;" x="400.321289" xlink:href="#mc41b0897ce" y="450.226718"/>
     <use style="fill:#008000;stroke:#008000;" x="368.838553" xlink:href="#mc41b0897ce" y="454.498101"/>
     <use style="fill:#008000;stroke:#008000;" x="337.321595" xlink:href="#mc41b0897ce" y="451.260285"/>
    </g>
   </g>
   <g id="PathCollection_2">
    <defs>
     <path d="M 0 3 
C 0.795609 3 1.55874 2.683901 2.12132 2.12132 
C 2.683901 1.55874 3 0.795609 3 0 
C 3 -0.795609 2.683901 -1.55874 2.12132 -2.12132 
C 1.55874 -2.683901 0.795609 -3 0 -3 
C -0.795609 -3 -1.55874 -2.683901 -2.12132 -2.12132 
C -2.683901 -1.55874 -3 -0.795609 -3 0 
C -3 0.795609 -2.683901 1.55874 -2.12132 2.12132 
C -1.55874 2.683901 -0.795609 3 0 3 
z
" id="mb84b589aab" style="stroke:#ff0000;"/>
    </defs>
    <g clip-path="url(#p713c3e34ff)">
     <use style="fill:#ff0000;stroke:#ff0000;" x="118.330891" xlink:href="#mb84b589aab" y="198.62586"/>
     <use style="fill:#ff0000;stroke:#ff0000;" x="119.911259" xlink:href="#mb84b589aab" y="261.556411"/>
     <use style="fill:#ff0000;stroke:#ff0000;" x="128.535397" xlink:href="#mb84b589aab" y="325.534587"/>
     <use style="fill:#ff0000;stroke:#ff0000;" x="143.818817" xlink:href="#mb84b589aab" y="388.790387"/>
     <use style="fill:#ff0000;stroke:#ff0000;" x="168.659651" xlink:href="#mb84b589aab" y="447.416995"/>
     <use style="fill:#ff0000;stroke:#ff0000;" x="206.119855" xlink:href="#mb84b589aab" y="498.546487"/>
     <use style="fill:#ff0000;stroke:#ff0000;" x="253.425812" xlink:href="#mb84b589aab" y="541.618339"/>
     <use style="fill:#ff0000;stroke:#ff0000;" x="308.145976" xlink:href="#mb84b589aab" y="574.473132"/>
     <use style="fill:#ff0000;stroke:#ff0000;" x="371.576479" xlink:href="#mb84b589aab" y="584.681343"/>
     <use style="fill:#ff0000;stroke:#ff0000;" x="435.428836" xlink:href="#mb84b589aab" y="573.252577"/>
     <use style="fill:#ff0000;stroke:#ff0000;" x="490.546538" xlink:href="#mb84b589aab" y="539.394405"/>
     <use style="fill:#ff0000;stroke:#ff0000;" x="538.323764" xlink:href="#mb84b589aab" y="495.672624"/>
     <use style="fill:#ff0000;stroke:#ff0000;" x="575.889274" xlink:href="#mb84b589aab" y="443.807226"/>
     <use style="fill:#ff0000;stroke:#ff0000;" x="599.619113" xlink:href="#mb84b589aab" y="384.097424"/>
     <use style="fill:#ff0000;stroke:#ff0000;" x="613.234437" xlink:href="#mb84b589aab" y="319.926279"/>
     <use style="fill:#ff0000;stroke:#ff0000;" x="619.669109" xlink:href="#mb84b589aab" y="254.79189"/>
     <use style="fill:#ff0000;stroke:#ff0000;" x="619.464867" xlink:href="#mb84b589aab" y="191.063659"/>
     <use style="fill:#ff0000;stroke:#ff0000;" x="166.920877" xlink:href="#mb84b589aab" y="144.861033"/>
     <use style="fill:#ff0000;stroke:#ff0000;" x="197.467404" xlink:href="#mb84b589aab" y="124.24342"/>
     <use style="fill:#ff0000;stroke:#ff0000;" x="237.258796" xlink:href="#mb84b589aab" y="119.183075"/>
     <use style="fill:#ff0000;stroke:#ff0000;" x="277.95394" xlink:href="#mb84b589aab" y="125.54967"/>
     <use style="fill:#ff0000;stroke:#ff0000;" x="315.809578" xlink:href="#mb84b589aab" y="138.94586"/>
     <use style="fill:#ff0000;stroke:#ff0000;" x="411.592586" xlink:href="#mb84b589aab" y="136.705311"/>
     <use style="fill:#ff0000;stroke:#ff0000;" x="449.854026" xlink:href="#mb84b589aab" y="121.701487"/>
     <use style="fill:#ff0000;stroke:#ff0000;" x="491.130322" xlink:href="#mb84b589aab" y="114.069578"/>
     <use style="fill:#ff0000;stroke:#ff0000;" x="532.13854" xlink:href="#mb84b589aab" y="118.037139"/>
     <use style="fill:#ff0000;stroke:#ff0000;" x="564.007356" xlink:href="#mb84b589aab" y="138.19705"/>
     <use style="fill:#ff0000;stroke:#ff0000;" x="364.672906" xlink:href="#mb84b589aab" y="188.654863"/>
     <use style="fill:#ff0000;stroke:#ff0000;" x="365.008925" xlink:href="#mb84b589aab" y="229.486624"/>
     <use style="fill:#ff0000;stroke:#ff0000;" x="365.193117" xlink:href="#mb84b589aab" y="268.690027"/>
     <use style="fill:#ff0000;stroke:#ff0000;" x="365.446723" xlink:href="#mb84b589aab" y="308.458633"/>
     <use style="fill:#ff0000;stroke:#ff0000;" x="316.773482" xlink:href="#mb84b589aab" y="345.408071"/>
     <use style="fill:#ff0000;stroke:#ff0000;" x="340.479903" xlink:href="#mb84b589aab" y="353.535761"/>
     <use style="fill:#ff0000;stroke:#ff0000;" x="366.948679" xlink:href="#mb84b589aab" y="358.483637"/>
     <use style="fill:#ff0000;stroke:#ff0000;" x="393.579596" xlink:href="#mb84b589aab" y="352.907471"/>
     <use style="fill:#ff0000;stroke:#ff0000;" x="417.238653" xlink:href="#mb84b589aab" y="344.451449"/>
     <use style="fill:#ff0000;stroke:#ff0000;" x="211.711191" xlink:href="#mb84b589aab" y="195.955642"/>
     <use style="fill:#ff0000;stroke:#ff0000;" x="239.863957" xlink:href="#mb84b589aab" y="180.112804"/>
     <use style="fill:#ff0000;stroke:#ff0000;" x="272.871816" xlink:href="#mb84b589aab" y="180.118627"/>
     <use style="fill:#ff0000;stroke:#ff0000;" x="301.314343" xlink:href="#mb84b589aab" y="200.389696"/>
     <use style="fill:#ff0000;stroke:#ff0000;" x="271.664674" xlink:href="#mb84b589aab" y="208.2011"/>
     <use style="fill:#ff0000;stroke:#ff0000;" x="239.036513" xlink:href="#mb84b589aab" y="208.214516"/>
     <use style="fill:#ff0000;stroke:#ff0000;" x="430.116314" xlink:href="#mb84b589aab" y="198.150232"/>
     <use style="fill:#ff0000;stroke:#ff0000;" x="458.30876" xlink:href="#mb84b589aab" y="176.819092"/>
     <use style="fill:#ff0000;stroke:#ff0000;" x="491.704265" xlink:href="#mb84b589aab" y="176.259084"/>
     <use style="fill:#ff0000;stroke:#ff0000;" x="520.495651" xlink:href="#mb84b589aab" y="191.270901"/>
     <use style="fill:#ff0000;stroke:#ff0000;" x="493.144174" xlink:href="#mb84b589aab" y="204.112848"/>
     <use style="fill:#ff0000;stroke:#ff0000;" x="460.432706" xlink:href="#mb84b589aab" y="205.005756"/>
     <use style="fill:#ff0000;stroke:#ff0000;" x="278.856271" xlink:href="#mb84b589aab" y="428.482548"/>
     <use style="fill:#ff0000;stroke:#ff0000;" x="310.247345" xlink:href="#mb84b589aab" y="410.606003"/>
     <use style="fill:#ff0000;stroke:#ff0000;" x="344.397037" xlink:href="#mb84b589aab" y="400.053018"/>
     <use style="fill:#ff0000;stroke:#ff0000;" x="367.884375" xlink:href="#mb84b589aab" y="405.706713"/>
     <use style="fill:#ff0000;stroke:#ff0000;" x="391.390394" xlink:href="#mb84b589aab" y="399.334181"/>
     <use style="fill:#ff0000;stroke:#ff0000;" x="426.862902" xlink:href="#mb84b589aab" y="409.256365"/>
     <use style="fill:#ff0000;stroke:#ff0000;" x="459.825398" xlink:href="#mb84b589aab" y="425.365306"/>
     <use style="fill:#ff0000;stroke:#ff0000;" x="429.488798" xlink:href="#mb84b589aab" y="453.031811"/>
     <use style="fill:#ff0000;stroke:#ff0000;" x="396.340584" xlink:href="#mb84b589aab" y="468.700235"/>
     <use style="fill:#ff0000;stroke:#ff0000;" x="369.042364" xlink:href="#mb84b589aab" y="471.980873"/>
     <use style="fill:#ff0000;stroke:#ff0000;" x="341.871395" xlink:href="#mb84b589aab" y="469.373228"/>
     <use style="fill:#ff0000;stroke:#ff0000;" x="309.148191" xlink:href="#mb84b589aab" y="454.594857"/>
     <use style="fill:#ff0000;stroke:#ff0000;" x="291.534057" xlink:href="#mb84b589aab" y="429.152572"/>
     <use style="fill:#ff0000;stroke:#ff0000;" x="343.910823" xlink:href="#mb84b589aab" y="423.961716"/>
     <use style="fill:#ff0000;stroke:#ff0000;" x="368.201185" xlink:href="#mb84b589aab" y="425.881811"/>
     <use style="fill:#ff0000;stroke:#ff0000;" x="392.769835" xlink:href="#mb84b589aab" y="423.261605"/>
     <use style="fill:#ff0000;stroke:#ff0000;" x="446.898374" xlink:href="#mb84b589aab" y="426.716086"/>
     <use style="fill:#ff0000;stroke:#ff0000;" x="393.731844" xlink:href="#mb84b589aab" y="435.667604"/>
     <use style="fill:#ff0000;stroke:#ff0000;" x="368.454265" xlink:href="#mb84b589aab" y="438.492196"/>
     <use style="fill:#ff0000;stroke:#ff0000;" x="343.465131" xlink:href="#mb84b589aab" y="436.28419"/>
    </g>
   </g>
   <g id="matplotlib.axis_1">
    <g id="xtick_1">
     <g id="line2d_1">
      <path clip-path="url(#p713c3e34ff)" d="M 108.436616 630 
L 108.436616 86.4 
" style="fill:none;stroke:#b0b0b0;stroke-linecap:square;stroke-width:0.8;"/>
     </g>
     <g id="line2d_2">
      <defs>
       <path d="M 0 0 
L 0 3.5 
" id="mf80496b7cc" style="stroke:#000000;stroke-width:0.8;"/>
      </defs>
      <g>
       <use style="stroke:#000000;stroke-width:0.8;" x="108.436616" xlink:href="#mf80496b7cc" y="630"/>
      </g>
     </g>
     <g id="text_1">
      <!-- −2.0 -->
      <defs>
       <path d="M 10.59375 35.5 
L 73.1875 35.5 
L 73.1875 27.203125 
L 10.59375 27.203125 
z
" id="DejaVuSans-2212"/>
       <path d="M 19.1875 8.296875 
L 53.609375 8.296875 
L 53.609375 0 
L 7.328125 0 
L 7.328125 8.296875 
Q 12.9375 14.109375 22.625 23.890625 
Q 32.328125 33.6875 34.8125 36.53125 
Q 39.546875 41.84375 41.421875 45.53125 
Q 43.3125 49.21875 43.3125 52.78125 
Q 43.3125 58.59375 39.234375 62.25 
Q 35.15625 65.921875 28.609375 65.921875 
Q 23.96875 65.921875 18.8125 64.3125 
Q 13.671875 62.703125 7.8125 59.421875 
L 7.8125 69.390625 
Q 13.765625 71.78125 18.9375 73 
Q 24.125 74.21875 28.421875 74.21875 
Q 39.75 74.21875 46.484375 68.546875 
Q 53.21875 62.890625 53.21875 53.421875 
Q 53.21875 48.921875 51.53125 44.890625 
Q 49.859375 40.875 45.40625 35.40625 
Q 44.1875 33.984375 37.640625 27.21875 
Q 31.109375 20.453125 19.1875 8.296875 
z
" id="DejaVuSans-32"/>
       <path d="M 10.6875 12.40625 
L 21 12.40625 
L 21 0 
L 10.6875 0 
z
" id="DejaVuSans-2e"/>
       <path d="M 31.78125 66.40625 
Q 24.171875 66.40625 20.328125 58.90625 
Q 16.5 51.421875 16.5 36.375 
Q 16.5 21.390625 20.328125 13.890625 
Q 24.171875 6.390625 31.78125 6.390625 
Q 39.453125 6.390625 43.28125 13.890625 
Q 47.125 21.390625 47.125 36.375 
Q 47.125 51.421875 43.28125 58.90625 
Q 39.453125 66.40625 31.78125 66.40625 
z
M 31.78125 74.21875 
Q 44.046875 74.21875 50.515625 64.515625 
Q 56.984375 54.828125 56.984375 36.375 
Q 56.984375 17.96875 50.515625 8.265625 
Q 44.046875 -1.421875 31.78125 -1.421875 
Q 19.53125 -1.421875 13.0625 8.265625 
Q 6.59375 17.96875 6.59375 36.375 
Q 6.59375 54.828125 13.0625 64.515625 
Q 19.53125 74.21875 31.78125 74.21875 
z
" id="DejaVuSans-30"/>
      </defs>
      <g transform="translate(96.29521 644.598438)scale(0.1 -0.1)">
       <use xlink:href="#DejaVuSans-2212"/>
       <use x="83.789062" xlink:href="#DejaVuSans-32"/>
       <use x="147.412109" xlink:href="#DejaVuSans-2e"/>
       <use x="179.199219" xlink:href="#DejaVuSans-30"/>
      </g>
     </g>
    </g>
    <g id="xtick_2">
     <g id="line2d_3">
      <path clip-path="url(#p713c3e34ff)" d="M 173.298556 630 
L 173.298556 86.4 
" style="fill:none;stroke:#b0b0b0;stroke-linecap:square;stroke-width:0.8;"/>
     </g>
     <g id="line2d_4">
      <g>
       <use style="stroke:#000000;stroke-width:0.8;" x="173.298556" xlink:href="#mf80496b7cc" y="630"/>
      </g>
     </g>
     <g id="text_2">
      <!-- −1.5 -->
      <defs>
       <path d="M 12.40625 8.296875 
L 28.515625 8.296875 
L 28.515625 63.921875 
L 10.984375 60.40625 
L 10.984375 69.390625 
L 28.421875 72.90625 
L 38.28125 72.90625 
L 38.28125 8.296875 
L 54.390625 8.296875 
L 54.390625 0 
L 12.40625 0 
z
" id="DejaVuSans-31"/>
       <path d="M 10.796875 72.90625 
L 49.515625 72.90625 
L 49.515625 64.59375 
L 19.828125 64.59375 
L 19.828125 46.734375 
Q 21.96875 47.46875 24.109375 47.828125 
Q 26.265625 48.1875 28.421875 48.1875 
Q 40.625 48.1875 47.75 41.5 
Q 54.890625 34.8125 54.890625 23.390625 
Q 54.890625 11.625 47.5625 5.09375 
Q 40.234375 -1.421875 26.90625 -1.421875 
Q 22.3125 -1.421875 17.546875 -0.640625 
Q 12.796875 0.140625 7.71875 1.703125 
L 7.71875 11.625 
Q 12.109375 9.234375 16.796875 8.0625 
Q 21.484375 6.890625 26.703125 6.890625 
Q 35.15625 6.890625 40.078125 11.328125 
Q 45.015625 15.765625 45.015625 23.390625 
Q 45.015625 31 40.078125 35.4375 
Q 35.15625 39.890625 26.703125 39.890625 
Q 22.75 39.890625 18.8125 39.015625 
Q 14.890625 38.140625 10.796875 36.28125 
z
" id="DejaVuSans-35"/>
      </defs>
      <g transform="translate(161.15715 644.598438)scale(0.1 -0.1)">
       <use xlink:href="#DejaVuSans-2212"/>
       <use x="83.789062" xlink:href="#DejaVuSans-31"/>
       <use x="147.412109" xlink:href="#DejaVuSans-2e"/>
       <use x="179.199219" xlink:href="#DejaVuSans-35"/>
      </g>
     </g>
    </g>
    <g id="xtick_3">
     <g id="line2d_5">
      <path clip-path="url(#p713c3e34ff)" d="M 238.160495 630 
L 238.160495 86.4 
" style="fill:none;stroke:#b0b0b0;stroke-linecap:square;stroke-width:0.8;"/>
     </g>
     <g id="line2d_6">
      <g>
       <use style="stroke:#000000;stroke-width:0.8;" x="238.160495" xlink:href="#mf80496b7cc" y="630"/>
      </g>
     </g>
     <g id="text_3">
      <!-- −1.0 -->
      <g transform="translate(226.019089 644.598438)scale(0.1 -0.1)">
       <use xlink:href="#DejaVuSans-2212"/>
       <use x="83.789062" xlink:href="#DejaVuSans-31"/>
       <use x="147.412109" xlink:href="#DejaVuSans-2e"/>
       <use x="179.199219" xlink:href="#DejaVuSans-30"/>
      </g>
     </g>
    </g>
    <g id="xtick_4">
     <g id="line2d_7">
      <path clip-path="url(#p713c3e34ff)" d="M 303.022435 630 
L 303.022435 86.4 
" style="fill:none;stroke:#b0b0b0;stroke-linecap:square;stroke-width:0.8;"/>
     </g>
     <g id="line2d_8">
      <g>
       <use style="stroke:#000000;stroke-width:0.8;" x="303.022435" xlink:href="#mf80496b7cc" y="630"/>
      </g>
     </g>
     <g id="text_4">
      <!-- −0.5 -->
      <g transform="translate(290.881029 644.598438)scale(0.1 -0.1)">
       <use xlink:href="#DejaVuSans-2212"/>
       <use x="83.789062" xlink:href="#DejaVuSans-30"/>
       <use x="147.412109" xlink:href="#DejaVuSans-2e"/>
       <use x="179.199219" xlink:href="#DejaVuSans-35"/>
      </g>
     </g>
    </g>
    <g id="xtick_5">
     <g id="line2d_9">
      <path clip-path="url(#p713c3e34ff)" d="M 367.884375 630 
L 367.884375 86.4 
" style="fill:none;stroke:#b0b0b0;stroke-linecap:square;stroke-width:0.8;"/>
     </g>
     <g id="line2d_10">
      <g>
       <use style="stroke:#000000;stroke-width:0.8;" x="367.884375" xlink:href="#mf80496b7cc" y="630"/>
      </g>
     </g>
     <g id="text_5">
      <!-- 0.0 -->
      <g transform="translate(359.932812 644.598438)scale(0.1 -0.1)">
       <use xlink:href="#DejaVuSans-30"/>
       <use x="63.623047" xlink:href="#DejaVuSans-2e"/>
       <use x="95.410156" xlink:href="#DejaVuSans-30"/>
      </g>
     </g>
    </g>
    <g id="xtick_6">
     <g id="line2d_11">
      <path clip-path="url(#p713c3e34ff)" d="M 432.746314 630 
L 432.746314 86.4 
" style="fill:none;stroke:#b0b0b0;stroke-linecap:square;stroke-width:0.8;"/>
     </g>
     <g id="line2d_12">
      <g>
       <use style="stroke:#000000;stroke-width:0.8;" x="432.746314" xlink:href="#mf80496b7cc" y="630"/>
      </g>
     </g>
     <g id="text_6">
      <!-- 0.5 -->
      <g transform="translate(424.794752 644.598438)scale(0.1 -0.1)">
       <use xlink:href="#DejaVuSans-30"/>
       <use x="63.623047" xlink:href="#DejaVuSans-2e"/>
       <use x="95.410156" xlink:href="#DejaVuSans-35"/>
      </g>
     </g>
    </g>
    <g id="xtick_7">
     <g id="line2d_13">
      <path clip-path="url(#p713c3e34ff)" d="M 497.608254 630 
L 497.608254 86.4 
" style="fill:none;stroke:#b0b0b0;stroke-linecap:square;stroke-width:0.8;"/>
     </g>
     <g id="line2d_14">
      <g>
       <use style="stroke:#000000;stroke-width:0.8;" x="497.608254" xlink:href="#mf80496b7cc" y="630"/>
      </g>
     </g>
     <g id="text_7">
      <!-- 1.0 -->
      <g transform="translate(489.656691 644.598438)scale(0.1 -0.1)">
       <use xlink:href="#DejaVuSans-31"/>
       <use x="63.623047" xlink:href="#DejaVuSans-2e"/>
       <use x="95.410156" xlink:href="#DejaVuSans-30"/>
      </g>
     </g>
    </g>
    <g id="xtick_8">
     <g id="line2d_15">
      <path clip-path="url(#p713c3e34ff)" d="M 562.470194 630 
L 562.470194 86.4 
" style="fill:none;stroke:#b0b0b0;stroke-linecap:square;stroke-width:0.8;"/>
     </g>
     <g id="line2d_16">
      <g>
       <use style="stroke:#000000;stroke-width:0.8;" x="562.470194" xlink:href="#mf80496b7cc" y="630"/>
      </g>
     </g>
     <g id="text_8">
      <!-- 1.5 -->
      <g transform="translate(554.518631 644.598438)scale(0.1 -0.1)">
       <use xlink:href="#DejaVuSans-31"/>
       <use x="63.623047" xlink:href="#DejaVuSans-2e"/>
       <use x="95.410156" xlink:href="#DejaVuSans-35"/>
      </g>
     </g>
    </g>
    <g id="xtick_9">
     <g id="line2d_17">
      <path clip-path="url(#p713c3e34ff)" d="M 627.332133 630 
L 627.332133 86.4 
" style="fill:none;stroke:#b0b0b0;stroke-linecap:square;stroke-width:0.8;"/>
     </g>
     <g id="line2d_18">
      <g>
       <use style="stroke:#000000;stroke-width:0.8;" x="627.332133" xlink:href="#mf80496b7cc" y="630"/>
      </g>
     </g>
     <g id="text_9">
      <!-- 2.0 -->
      <g transform="translate(619.380571 644.598438)scale(0.1 -0.1)">
       <use xlink:href="#DejaVuSans-32"/>
       <use x="63.623047" xlink:href="#DejaVuSans-2e"/>
       <use x="95.410156" xlink:href="#DejaVuSans-30"/>
      </g>
     </g>
    </g>
    <g id="text_10">
     <!-- x-coordinates -->
     <defs>
      <path d="M 54.890625 54.6875 
L 35.109375 28.078125 
L 55.90625 0 
L 45.3125 0 
L 29.390625 21.484375 
L 13.484375 0 
L 2.875 0 
L 24.125 28.609375 
L 4.6875 54.6875 
L 15.28125 54.6875 
L 29.78125 35.203125 
L 44.28125 54.6875 
z
" id="DejaVuSans-78"/>
      <path d="M 4.890625 31.390625 
L 31.203125 31.390625 
L 31.203125 23.390625 
L 4.890625 23.390625 
z
" id="DejaVuSans-2d"/>
      <path d="M 48.78125 52.59375 
L 48.78125 44.1875 
Q 44.96875 46.296875 41.140625 47.34375 
Q 37.3125 48.390625 33.40625 48.390625 
Q 24.65625 48.390625 19.8125 42.84375 
Q 14.984375 37.3125 14.984375 27.296875 
Q 14.984375 17.28125 19.8125 11.734375 
Q 24.65625 6.203125 33.40625 6.203125 
Q 37.3125 6.203125 41.140625 7.25 
Q 44.96875 8.296875 48.78125 10.40625 
L 48.78125 2.09375 
Q 45.015625 0.34375 40.984375 -0.53125 
Q 36.96875 -1.421875 32.421875 -1.421875 
Q 20.0625 -1.421875 12.78125 6.34375 
Q 5.515625 14.109375 5.515625 27.296875 
Q 5.515625 40.671875 12.859375 48.328125 
Q 20.21875 56 33.015625 56 
Q 37.15625 56 41.109375 55.140625 
Q 45.0625 54.296875 48.78125 52.59375 
z
" id="DejaVuSans-63"/>
      <path d="M 30.609375 48.390625 
Q 23.390625 48.390625 19.1875 42.75 
Q 14.984375 37.109375 14.984375 27.296875 
Q 14.984375 17.484375 19.15625 11.84375 
Q 23.34375 6.203125 30.609375 6.203125 
Q 37.796875 6.203125 41.984375 11.859375 
Q 46.1875 17.53125 46.1875 27.296875 
Q 46.1875 37.015625 41.984375 42.703125 
Q 37.796875 48.390625 30.609375 48.390625 
z
M 30.609375 56 
Q 42.328125 56 49.015625 48.375 
Q 55.71875 40.765625 55.71875 27.296875 
Q 55.71875 13.875 49.015625 6.21875 
Q 42.328125 -1.421875 30.609375 -1.421875 
Q 18.84375 -1.421875 12.171875 6.21875 
Q 5.515625 13.875 5.515625 27.296875 
Q 5.515625 40.765625 12.171875 48.375 
Q 18.84375 56 30.609375 56 
z
" id="DejaVuSans-6f"/>
      <path d="M 41.109375 46.296875 
Q 39.59375 47.171875 37.8125 47.578125 
Q 36.03125 48 33.890625 48 
Q 26.265625 48 22.1875 43.046875 
Q 18.109375 38.09375 18.109375 28.8125 
L 18.109375 0 
L 9.078125 0 
L 9.078125 54.6875 
L 18.109375 54.6875 
L 18.109375 46.1875 
Q 20.953125 51.171875 25.484375 53.578125 
Q 30.03125 56 36.53125 56 
Q 37.453125 56 38.578125 55.875 
Q 39.703125 55.765625 41.0625 55.515625 
z
" id="DejaVuSans-72"/>
      <path d="M 45.40625 46.390625 
L 45.40625 75.984375 
L 54.390625 75.984375 
L 54.390625 0 
L 45.40625 0 
L 45.40625 8.203125 
Q 42.578125 3.328125 38.25 0.953125 
Q 33.9375 -1.421875 27.875 -1.421875 
Q 17.96875 -1.421875 11.734375 6.484375 
Q 5.515625 14.40625 5.515625 27.296875 
Q 5.515625 40.1875 11.734375 48.09375 
Q 17.96875 56 27.875 56 
Q 33.9375 56 38.25 53.625 
Q 42.578125 51.265625 45.40625 46.390625 
z
M 14.796875 27.296875 
Q 14.796875 17.390625 18.875 11.75 
Q 22.953125 6.109375 30.078125 6.109375 
Q 37.203125 6.109375 41.296875 11.75 
Q 45.40625 17.390625 45.40625 27.296875 
Q 45.40625 37.203125 41.296875 42.84375 
Q 37.203125 48.484375 30.078125 48.484375 
Q 22.953125 48.484375 18.875 42.84375 
Q 14.796875 37.203125 14.796875 27.296875 
z
" id="DejaVuSans-64"/>
      <path d="M 9.421875 54.6875 
L 18.40625 54.6875 
L 18.40625 0 
L 9.421875 0 
z
M 9.421875 75.984375 
L 18.40625 75.984375 
L 18.40625 64.59375 
L 9.421875 64.59375 
z
" id="DejaVuSans-69"/>
      <path d="M 54.890625 33.015625 
L 54.890625 0 
L 45.90625 0 
L 45.90625 32.71875 
Q 45.90625 40.484375 42.875 44.328125 
Q 39.84375 48.1875 33.796875 48.1875 
Q 26.515625 48.1875 22.3125 43.546875 
Q 18.109375 38.921875 18.109375 30.90625 
L 18.109375 0 
L 9.078125 0 
L 9.078125 54.6875 
L 18.109375 54.6875 
L 18.109375 46.1875 
Q 21.34375 51.125 25.703125 53.5625 
Q 30.078125 56 35.796875 56 
Q 45.21875 56 50.046875 50.171875 
Q 54.890625 44.34375 54.890625 33.015625 
z
" id="DejaVuSans-6e"/>
      <path d="M 34.28125 27.484375 
Q 23.390625 27.484375 19.1875 25 
Q 14.984375 22.515625 14.984375 16.5 
Q 14.984375 11.71875 18.140625 8.90625 
Q 21.296875 6.109375 26.703125 6.109375 
Q 34.1875 6.109375 38.703125 11.40625 
Q 43.21875 16.703125 43.21875 25.484375 
L 43.21875 27.484375 
z
M 52.203125 31.203125 
L 52.203125 0 
L 43.21875 0 
L 43.21875 8.296875 
Q 40.140625 3.328125 35.546875 0.953125 
Q 30.953125 -1.421875 24.3125 -1.421875 
Q 15.921875 -1.421875 10.953125 3.296875 
Q 6 8.015625 6 15.921875 
Q 6 25.140625 12.171875 29.828125 
Q 18.359375 34.515625 30.609375 34.515625 
L 43.21875 34.515625 
L 43.21875 35.40625 
Q 43.21875 41.609375 39.140625 45 
Q 35.0625 48.390625 27.6875 48.390625 
Q 23 48.390625 18.546875 47.265625 
Q 14.109375 46.140625 10.015625 43.890625 
L 10.015625 52.203125 
Q 14.9375 54.109375 19.578125 55.046875 
Q 24.21875 56 28.609375 56 
Q 40.484375 56 46.34375 49.84375 
Q 52.203125 43.703125 52.203125 31.203125 
z
" id="DejaVuSans-61"/>
      <path d="M 18.3125 70.21875 
L 18.3125 54.6875 
L 36.8125 54.6875 
L 36.8125 47.703125 
L 18.3125 47.703125 
L 18.3125 18.015625 
Q 18.3125 11.328125 20.140625 9.421875 
Q 21.96875 7.515625 27.59375 7.515625 
L 36.8125 7.515625 
L 36.8125 0 
L 27.59375 0 
Q 17.1875 0 13.234375 3.875 
Q 9.28125 7.765625 9.28125 18.015625 
L 9.28125 47.703125 
L 2.6875 47.703125 
L 2.6875 54.6875 
L 9.28125 54.6875 
L 9.28125 70.21875 
z
" id="DejaVuSans-74"/>
      <path d="M 56.203125 29.59375 
L 56.203125 25.203125 
L 14.890625 25.203125 
Q 15.484375 15.921875 20.484375 11.0625 
Q 25.484375 6.203125 34.421875 6.203125 
Q 39.59375 6.203125 44.453125 7.46875 
Q 49.3125 8.734375 54.109375 11.28125 
L 54.109375 2.78125 
Q 49.265625 0.734375 44.1875 -0.34375 
Q 39.109375 -1.421875 33.890625 -1.421875 
Q 20.796875 -1.421875 13.15625 6.1875 
Q 5.515625 13.8125 5.515625 26.8125 
Q 5.515625 40.234375 12.765625 48.109375 
Q 20.015625 56 32.328125 56 
Q 43.359375 56 49.78125 48.890625 
Q 56.203125 41.796875 56.203125 29.59375 
z
M 47.21875 32.234375 
Q 47.125 39.59375 43.09375 43.984375 
Q 39.0625 48.390625 32.421875 48.390625 
Q 24.90625 48.390625 20.390625 44.140625 
Q 15.875 39.890625 15.1875 32.171875 
z
" id="DejaVuSans-65"/>
      <path d="M 44.28125 53.078125 
L 44.28125 44.578125 
Q 40.484375 46.53125 36.375 47.5 
Q 32.28125 48.484375 27.875 48.484375 
Q 21.1875 48.484375 17.84375 46.4375 
Q 14.5 44.390625 14.5 40.28125 
Q 14.5 37.15625 16.890625 35.375 
Q 19.28125 33.59375 26.515625 31.984375 
L 29.59375 31.296875 
Q 39.15625 29.25 43.1875 25.515625 
Q 47.21875 21.78125 47.21875 15.09375 
Q 47.21875 7.46875 41.1875 3.015625 
Q 35.15625 -1.421875 24.609375 -1.421875 
Q 20.21875 -1.421875 15.453125 -0.5625 
Q 10.6875 0.296875 5.421875 2 
L 5.421875 11.28125 
Q 10.40625 8.6875 15.234375 7.390625 
Q 20.0625 6.109375 24.8125 6.109375 
Q 31.15625 6.109375 34.5625 8.28125 
Q 37.984375 10.453125 37.984375 14.40625 
Q 37.984375 18.0625 35.515625 20.015625 
Q 33.0625 21.96875 24.703125 23.78125 
L 21.578125 24.515625 
Q 13.234375 26.265625 9.515625 29.90625 
Q 5.8125 33.546875 5.8125 39.890625 
Q 5.8125 47.609375 11.28125 51.796875 
Q 16.75 56 26.8125 56 
Q 31.78125 56 36.171875 55.265625 
Q 40.578125 54.546875 44.28125 53.078125 
z
" id="DejaVuSans-73"/>
     </defs>
     <g transform="translate(334.876562 658.276562)scale(0.1 -0.1)">
      <use xlink:href="#DejaVuSans-78"/>
      <use x="59.179688" xlink:href="#DejaVuSans-2d"/>
      <use x="95.263672" xlink:href="#DejaVuSans-63"/>
      <use x="150.244141" xlink:href="#DejaVuSans-6f"/>
      <use x="211.425781" xlink:href="#DejaVuSans-6f"/>
      <use x="272.607422" xlink:href="#DejaVuSans-72"/>
      <use x="313.705078" xlink:href="#DejaVuSans-64"/>
      <use x="377.181641" xlink:href="#DejaVuSans-69"/>
      <use x="404.964844" xlink:href="#DejaVuSans-6e"/>
      <use x="468.34375" xlink:href="#DejaVuSans-61"/>
      <use x="529.623047" xlink:href="#DejaVuSans-74"/>
      <use x="568.832031" xlink:href="#DejaVuSans-65"/>
      <use x="630.355469" xlink:href="#DejaVuSans-73"/>
     </g>
    </g>
   </g>
   <g id="matplotlib.axis_2">
    <g id="ytick_1">
     <g id="line2d_19">
      <path clip-path="url(#p713c3e34ff)" d="M 90 616.801827 
L 648 616.801827 
" style="fill:none;stroke:#b0b0b0;stroke-linecap:square;stroke-width:0.8;"/>
     </g>
     <g id="line2d_20">
      <defs>
       <path d="M 0 0 
L -3.5 0 
" id="md9036bd72d" style="stroke:#000000;stroke-width:0.8;"/>
      </defs>
      <g>
       <use style="stroke:#000000;stroke-width:0.8;" x="90" xlink:href="#md9036bd72d" y="616.801827"/>
      </g>
     </g>
     <g id="text_11">
      <!-- −1.5 -->
      <g transform="translate(58.717187 620.601046)scale(0.1 -0.1)">
       <use xlink:href="#DejaVuSans-2212"/>
       <use x="83.789062" xlink:href="#DejaVuSans-31"/>
       <use x="147.412109" xlink:href="#DejaVuSans-2e"/>
       <use x="179.199219" xlink:href="#DejaVuSans-35"/>
      </g>
     </g>
    </g>
    <g id="ytick_2">
     <g id="line2d_21">
      <path clip-path="url(#p713c3e34ff)" d="M 90 546.436789 
L 648 546.436789 
" style="fill:none;stroke:#b0b0b0;stroke-linecap:square;stroke-width:0.8;"/>
     </g>
     <g id="line2d_22">
      <g>
       <use style="stroke:#000000;stroke-width:0.8;" x="90" xlink:href="#md9036bd72d" y="546.436789"/>
      </g>
     </g>
     <g id="text_12">
      <!-- −1.0 -->
      <g transform="translate(58.717187 550.236008)scale(0.1 -0.1)">
       <use xlink:href="#DejaVuSans-2212"/>
       <use x="83.789062" xlink:href="#DejaVuSans-31"/>
       <use x="147.412109" xlink:href="#DejaVuSans-2e"/>
       <use x="179.199219" xlink:href="#DejaVuSans-30"/>
      </g>
     </g>
    </g>
    <g id="ytick_3">
     <g id="line2d_23">
      <path clip-path="url(#p713c3e34ff)" d="M 90 476.071751 
L 648 476.071751 
" style="fill:none;stroke:#b0b0b0;stroke-linecap:square;stroke-width:0.8;"/>
     </g>
     <g id="line2d_24">
      <g>
       <use style="stroke:#000000;stroke-width:0.8;" x="90" xlink:href="#md9036bd72d" y="476.071751"/>
      </g>
     </g>
     <g id="text_13">
      <!-- −0.5 -->
      <g transform="translate(58.717187 479.87097)scale(0.1 -0.1)">
       <use xlink:href="#DejaVuSans-2212"/>
       <use x="83.789062" xlink:href="#DejaVuSans-30"/>
       <use x="147.412109" xlink:href="#DejaVuSans-2e"/>
       <use x="179.199219" xlink:href="#DejaVuSans-35"/>
      </g>
     </g>
    </g>
    <g id="ytick_4">
     <g id="line2d_25">
      <path clip-path="url(#p713c3e34ff)" d="M 90 405.706713 
L 648 405.706713 
" style="fill:none;stroke:#b0b0b0;stroke-linecap:square;stroke-width:0.8;"/>
     </g>
     <g id="line2d_26">
      <g>
       <use style="stroke:#000000;stroke-width:0.8;" x="90" xlink:href="#md9036bd72d" y="405.706713"/>
      </g>
     </g>
     <g id="text_14">
      <!-- 0.0 -->
      <g transform="translate(67.096875 409.505931)scale(0.1 -0.1)">
       <use xlink:href="#DejaVuSans-30"/>
       <use x="63.623047" xlink:href="#DejaVuSans-2e"/>
       <use x="95.410156" xlink:href="#DejaVuSans-30"/>
      </g>
     </g>
    </g>
    <g id="ytick_5">
     <g id="line2d_27">
      <path clip-path="url(#p713c3e34ff)" d="M 90 335.341675 
L 648 335.341675 
" style="fill:none;stroke:#b0b0b0;stroke-linecap:square;stroke-width:0.8;"/>
     </g>
     <g id="line2d_28">
      <g>
       <use style="stroke:#000000;stroke-width:0.8;" x="90" xlink:href="#md9036bd72d" y="335.341675"/>
      </g>
     </g>
     <g id="text_15">
      <!-- 0.5 -->
      <g transform="translate(67.096875 339.140893)scale(0.1 -0.1)">
       <use xlink:href="#DejaVuSans-30"/>
       <use x="63.623047" xlink:href="#DejaVuSans-2e"/>
       <use x="95.410156" xlink:href="#DejaVuSans-35"/>
      </g>
     </g>
    </g>
    <g id="ytick_6">
     <g id="line2d_29">
      <path clip-path="url(#p713c3e34ff)" d="M 90 264.976637 
L 648 264.976637 
" style="fill:none;stroke:#b0b0b0;stroke-linecap:square;stroke-width:0.8;"/>
     </g>
     <g id="line2d_30">
      <g>
       <use style="stroke:#000000;stroke-width:0.8;" x="90" xlink:href="#md9036bd72d" y="264.976637"/>
      </g>
     </g>
     <g id="text_16">
      <!-- 1.0 -->
      <g transform="translate(67.096875 268.775855)scale(0.1 -0.1)">
       <use xlink:href="#DejaVuSans-31"/>
       <use x="63.623047" xlink:href="#DejaVuSans-2e"/>
       <use x="95.410156" xlink:href="#DejaVuSans-30"/>
      </g>
     </g>
    </g>
    <g id="ytick_7">
     <g id="line2d_31">
      <path clip-path="url(#p713c3e34ff)" d="M 90 194.611599 
L 648 194.611599 
" style="fill:none;stroke:#b0b0b0;stroke-linecap:square;stroke-width:0.8;"/>
     </g>
     <g id="line2d_32">
      <g>
       <use style="stroke:#000000;stroke-width:0.8;" x="90" xlink:href="#md9036bd72d" y="194.611599"/>
      </g>
     </g>
     <g id="text_17">
      <!-- 1.5 -->
      <g transform="translate(67.096875 198.410817)scale(0.1 -0.1)">
       <use xlink:href="#DejaVuSans-31"/>
       <use x="63.623047" xlink:href="#DejaVuSans-2e"/>
       <use x="95.410156" xlink:href="#DejaVuSans-35"/>
      </g>
     </g>
    </g>
    <g id="ytick_8">
     <g id="line2d_33">
      <path clip-path="url(#p713c3e34ff)" d="M 90 124.246561 
L 648 124.246561 
" style="fill:none;stroke:#b0b0b0;stroke-linecap:square;stroke-width:0.8;"/>
     </g>
     <g id="line2d_34">
      <g>
       <use style="stroke:#000000;stroke-width:0.8;" x="90" xlink:href="#md9036bd72d" y="124.246561"/>
      </g>
     </g>
     <g id="text_18">
      <!-- 2.0 -->
      <g transform="translate(67.096875 128.045779)scale(0.1 -0.1)">
       <use xlink:href="#DejaVuSans-32"/>
       <use x="63.623047" xlink:href="#DejaVuSans-2e"/>
       <use x="95.410156" xlink:href="#DejaVuSans-30"/>
      </g>
     </g>
    </g>
    <g id="text_19">
     <!-- y-coordinates -->
     <defs>
      <path d="M 32.171875 -5.078125 
Q 28.375 -14.84375 24.75 -17.8125 
Q 21.140625 -20.796875 15.09375 -20.796875 
L 7.90625 -20.796875 
L 7.90625 -13.28125 
L 13.1875 -13.28125 
Q 16.890625 -13.28125 18.9375 -11.515625 
Q 21 -9.765625 23.484375 -3.21875 
L 25.09375 0.875 
L 2.984375 54.6875 
L 12.5 54.6875 
L 29.59375 11.921875 
L 46.6875 54.6875 
L 56.203125 54.6875 
z
" id="DejaVuSans-79"/>
     </defs>
     <g transform="translate(52.6375 392.322656)rotate(-90)scale(0.1 -0.1)">
      <use xlink:href="#DejaVuSans-79"/>
      <use x="59.164062" xlink:href="#DejaVuSans-2d"/>
      <use x="95.248047" xlink:href="#DejaVuSans-63"/>
      <use x="150.228516" xlink:href="#DejaVuSans-6f"/>
      <use x="211.410156" xlink:href="#DejaVuSans-6f"/>
      <use x="272.591797" xlink:href="#DejaVuSans-72"/>
      <use x="313.689453" xlink:href="#DejaVuSans-64"/>
      <use x="377.166016" xlink:href="#DejaVuSans-69"/>
      <use x="404.949219" xlink:href="#DejaVuSans-6e"/>
      <use x="468.328125" xlink:href="#DejaVuSans-61"/>
      <use x="529.607422" xlink:href="#DejaVuSans-74"/>
      <use x="568.816406" xlink:href="#DejaVuSans-65"/>
      <use x="630.339844" xlink:href="#DejaVuSans-73"/>
     </g>
    </g>
   </g>
   <g id="patch_3">
    <path d="M 90 630 
L 90 86.4 
" style="fill:none;stroke:#000000;stroke-linecap:square;stroke-linejoin:miter;stroke-width:0.8;"/>
   </g>
   <g id="patch_4">
    <path d="M 648 630 
L 648 86.4 
" style="fill:none;stroke:#000000;stroke-linecap:square;stroke-linejoin:miter;stroke-width:0.8;"/>
   </g>
   <g id="patch_5">
    <path d="M 90 630 
L 648 630 
" style="fill:none;stroke:#000000;stroke-linecap:square;stroke-linejoin:miter;stroke-width:0.8;"/>
   </g>
   <g id="patch_6">
    <path d="M 90 86.4 
L 648 86.4 
" style="fill:none;stroke:#000000;stroke-linecap:square;stroke-linejoin:miter;stroke-width:0.8;"/>
   </g>
   <g id="text_20">
    <!-- Scatter plot of average location for each 2D coordinate for faces -->
    <defs>
     <path d="M 53.515625 70.515625 
L 53.515625 60.890625 
Q 47.90625 63.578125 42.921875 64.890625 
Q 37.9375 66.21875 33.296875 66.21875 
Q 25.25 66.21875 20.875 63.09375 
Q 16.5 59.96875 16.5 54.203125 
Q 16.5 49.359375 19.40625 46.890625 
Q 22.3125 44.4375 30.421875 42.921875 
L 36.375 41.703125 
Q 47.40625 39.59375 52.65625 34.296875 
Q 57.90625 29 57.90625 20.125 
Q 57.90625 9.515625 50.796875 4.046875 
Q 43.703125 -1.421875 29.984375 -1.421875 
Q 24.8125 -1.421875 18.96875 -0.25 
Q 13.140625 0.921875 6.890625 3.21875 
L 6.890625 13.375 
Q 12.890625 10.015625 18.65625 8.296875 
Q 24.421875 6.59375 29.984375 6.59375 
Q 38.421875 6.59375 43.015625 9.90625 
Q 47.609375 13.234375 47.609375 19.390625 
Q 47.609375 24.75 44.3125 27.78125 
Q 41.015625 30.8125 33.5 32.328125 
L 27.484375 33.5 
Q 16.453125 35.6875 11.515625 40.375 
Q 6.59375 45.0625 6.59375 53.421875 
Q 6.59375 63.09375 13.40625 68.65625 
Q 20.21875 74.21875 32.171875 74.21875 
Q 37.3125 74.21875 42.625 73.28125 
Q 47.953125 72.359375 53.515625 70.515625 
z
" id="DejaVuSans-53"/>
     <path id="DejaVuSans-20"/>
     <path d="M 18.109375 8.203125 
L 18.109375 -20.796875 
L 9.078125 -20.796875 
L 9.078125 54.6875 
L 18.109375 54.6875 
L 18.109375 46.390625 
Q 20.953125 51.265625 25.265625 53.625 
Q 29.59375 56 35.59375 56 
Q 45.5625 56 51.78125 48.09375 
Q 58.015625 40.1875 58.015625 27.296875 
Q 58.015625 14.40625 51.78125 6.484375 
Q 45.5625 -1.421875 35.59375 -1.421875 
Q 29.59375 -1.421875 25.265625 0.953125 
Q 20.953125 3.328125 18.109375 8.203125 
z
M 48.6875 27.296875 
Q 48.6875 37.203125 44.609375 42.84375 
Q 40.53125 48.484375 33.40625 48.484375 
Q 26.265625 48.484375 22.1875 42.84375 
Q 18.109375 37.203125 18.109375 27.296875 
Q 18.109375 17.390625 22.1875 11.75 
Q 26.265625 6.109375 33.40625 6.109375 
Q 40.53125 6.109375 44.609375 11.75 
Q 48.6875 17.390625 48.6875 27.296875 
z
" id="DejaVuSans-70"/>
     <path d="M 9.421875 75.984375 
L 18.40625 75.984375 
L 18.40625 0 
L 9.421875 0 
z
" id="DejaVuSans-6c"/>
     <path d="M 37.109375 75.984375 
L 37.109375 68.5 
L 28.515625 68.5 
Q 23.6875 68.5 21.796875 66.546875 
Q 19.921875 64.59375 19.921875 59.515625 
L 19.921875 54.6875 
L 34.71875 54.6875 
L 34.71875 47.703125 
L 19.921875 47.703125 
L 19.921875 0 
L 10.890625 0 
L 10.890625 47.703125 
L 2.296875 47.703125 
L 2.296875 54.6875 
L 10.890625 54.6875 
L 10.890625 58.5 
Q 10.890625 67.625 15.140625 71.796875 
Q 19.390625 75.984375 28.609375 75.984375 
z
" id="DejaVuSans-66"/>
     <path d="M 2.984375 54.6875 
L 12.5 54.6875 
L 29.59375 8.796875 
L 46.6875 54.6875 
L 56.203125 54.6875 
L 35.6875 0 
L 23.484375 0 
z
" id="DejaVuSans-76"/>
     <path d="M 45.40625 27.984375 
Q 45.40625 37.75 41.375 43.109375 
Q 37.359375 48.484375 30.078125 48.484375 
Q 22.859375 48.484375 18.828125 43.109375 
Q 14.796875 37.75 14.796875 27.984375 
Q 14.796875 18.265625 18.828125 12.890625 
Q 22.859375 7.515625 30.078125 7.515625 
Q 37.359375 7.515625 41.375 12.890625 
Q 45.40625 18.265625 45.40625 27.984375 
z
M 54.390625 6.78125 
Q 54.390625 -7.171875 48.1875 -13.984375 
Q 42 -20.796875 29.203125 -20.796875 
Q 24.46875 -20.796875 20.265625 -20.09375 
Q 16.0625 -19.390625 12.109375 -17.921875 
L 12.109375 -9.1875 
Q 16.0625 -11.328125 19.921875 -12.34375 
Q 23.78125 -13.375 27.78125 -13.375 
Q 36.625 -13.375 41.015625 -8.765625 
Q 45.40625 -4.15625 45.40625 5.171875 
L 45.40625 9.625 
Q 42.625 4.78125 38.28125 2.390625 
Q 33.9375 0 27.875 0 
Q 17.828125 0 11.671875 7.65625 
Q 5.515625 15.328125 5.515625 27.984375 
Q 5.515625 40.671875 11.671875 48.328125 
Q 17.828125 56 27.875 56 
Q 33.9375 56 38.28125 53.609375 
Q 42.625 51.21875 45.40625 46.390625 
L 45.40625 54.6875 
L 54.390625 54.6875 
z
" id="DejaVuSans-67"/>
     <path d="M 54.890625 33.015625 
L 54.890625 0 
L 45.90625 0 
L 45.90625 32.71875 
Q 45.90625 40.484375 42.875 44.328125 
Q 39.84375 48.1875 33.796875 48.1875 
Q 26.515625 48.1875 22.3125 43.546875 
Q 18.109375 38.921875 18.109375 30.90625 
L 18.109375 0 
L 9.078125 0 
L 9.078125 75.984375 
L 18.109375 75.984375 
L 18.109375 46.1875 
Q 21.34375 51.125 25.703125 53.5625 
Q 30.078125 56 35.796875 56 
Q 45.21875 56 50.046875 50.171875 
Q 54.890625 44.34375 54.890625 33.015625 
z
" id="DejaVuSans-68"/>
     <path d="M 19.671875 64.796875 
L 19.671875 8.109375 
L 31.59375 8.109375 
Q 46.6875 8.109375 53.6875 14.9375 
Q 60.6875 21.78125 60.6875 36.53125 
Q 60.6875 51.171875 53.6875 57.984375 
Q 46.6875 64.796875 31.59375 64.796875 
z
M 9.8125 72.90625 
L 30.078125 72.90625 
Q 51.265625 72.90625 61.171875 64.09375 
Q 71.09375 55.28125 71.09375 36.53125 
Q 71.09375 17.671875 61.125 8.828125 
Q 51.171875 0 30.078125 0 
L 9.8125 0 
z
" id="DejaVuSans-44"/>
    </defs>
    <g transform="translate(175.209375 80.4)scale(0.12 -0.12)">
     <use xlink:href="#DejaVuSans-53"/>
     <use x="63.476562" xlink:href="#DejaVuSans-63"/>
     <use x="118.457031" xlink:href="#DejaVuSans-61"/>
     <use x="179.736328" xlink:href="#DejaVuSans-74"/>
     <use x="218.945312" xlink:href="#DejaVuSans-74"/>
     <use x="258.154297" xlink:href="#DejaVuSans-65"/>
     <use x="319.677734" xlink:href="#DejaVuSans-72"/>
     <use x="360.791016" xlink:href="#DejaVuSans-20"/>
     <use x="392.578125" xlink:href="#DejaVuSans-70"/>
     <use x="456.054688" xlink:href="#DejaVuSans-6c"/>
     <use x="483.837891" xlink:href="#DejaVuSans-6f"/>
     <use x="545.019531" xlink:href="#DejaVuSans-74"/>
     <use x="584.228516" xlink:href="#DejaVuSans-20"/>
     <use x="616.015625" xlink:href="#DejaVuSans-6f"/>
     <use x="677.197266" xlink:href="#DejaVuSans-66"/>
     <use x="712.402344" xlink:href="#DejaVuSans-20"/>
     <use x="744.189453" xlink:href="#DejaVuSans-61"/>
     <use x="805.46875" xlink:href="#DejaVuSans-76"/>
     <use x="864.648438" xlink:href="#DejaVuSans-65"/>
     <use x="926.171875" xlink:href="#DejaVuSans-72"/>
     <use x="967.285156" xlink:href="#DejaVuSans-61"/>
     <use x="1028.564453" xlink:href="#DejaVuSans-67"/>
     <use x="1092.041016" xlink:href="#DejaVuSans-65"/>
     <use x="1153.564453" xlink:href="#DejaVuSans-20"/>
     <use x="1185.351562" xlink:href="#DejaVuSans-6c"/>
     <use x="1213.134766" xlink:href="#DejaVuSans-6f"/>
     <use x="1274.316406" xlink:href="#DejaVuSans-63"/>
     <use x="1329.296875" xlink:href="#DejaVuSans-61"/>
     <use x="1390.576172" xlink:href="#DejaVuSans-74"/>
     <use x="1429.785156" xlink:href="#DejaVuSans-69"/>
     <use x="1457.568359" xlink:href="#DejaVuSans-6f"/>
     <use x="1518.75" xlink:href="#DejaVuSans-6e"/>
     <use x="1582.128906" xlink:href="#DejaVuSans-20"/>
     <use x="1613.916016" xlink:href="#DejaVuSans-66"/>
     <use x="1649.121094" xlink:href="#DejaVuSans-6f"/>
     <use x="1710.302734" xlink:href="#DejaVuSans-72"/>
     <use x="1751.416016" xlink:href="#DejaVuSans-20"/>
     <use x="1783.203125" xlink:href="#DejaVuSans-65"/>
     <use x="1844.726562" xlink:href="#DejaVuSans-61"/>
     <use x="1906.005859" xlink:href="#DejaVuSans-63"/>
     <use x="1960.986328" xlink:href="#DejaVuSans-68"/>
     <use x="2024.365234" xlink:href="#DejaVuSans-20"/>
     <use x="2056.152344" xlink:href="#DejaVuSans-32"/>
     <use x="2119.775391" xlink:href="#DejaVuSans-44"/>
     <use x="2196.777344" xlink:href="#DejaVuSans-20"/>
     <use x="2228.564453" xlink:href="#DejaVuSans-63"/>
     <use x="2283.544922" xlink:href="#DejaVuSans-6f"/>
     <use x="2344.726562" xlink:href="#DejaVuSans-6f"/>
     <use x="2405.908203" xlink:href="#DejaVuSans-72"/>
     <use x="2447.005859" xlink:href="#DejaVuSans-64"/>
     <use x="2510.482422" xlink:href="#DejaVuSans-69"/>
     <use x="2538.265625" xlink:href="#DejaVuSans-6e"/>
     <use x="2601.644531" xlink:href="#DejaVuSans-61"/>
     <use x="2662.923828" xlink:href="#DejaVuSans-74"/>
     <use x="2702.132812" xlink:href="#DejaVuSans-65"/>
     <use x="2763.65625" xlink:href="#DejaVuSans-20"/>
     <use x="2795.443359" xlink:href="#DejaVuSans-66"/>
     <use x="2830.648438" xlink:href="#DejaVuSans-6f"/>
     <use x="2891.830078" xlink:href="#DejaVuSans-72"/>
     <use x="2932.943359" xlink:href="#DejaVuSans-20"/>
     <use x="2964.730469" xlink:href="#DejaVuSans-66"/>
     <use x="2999.935547" xlink:href="#DejaVuSans-61"/>
     <use x="3061.214844" xlink:href="#DejaVuSans-63"/>
     <use x="3116.195312" xlink:href="#DejaVuSans-65"/>
     <use x="3177.71875" xlink:href="#DejaVuSans-73"/>
    </g>
   </g>
   <g id="legend_1">
    <g id="patch_7">
     <path d="M 97 625 
L 299.860937 625 
Q 301.860937 625 301.860937 623 
L 301.860937 594.64375 
Q 301.860937 592.64375 299.860937 592.64375 
L 97 592.64375 
Q 95 592.64375 95 594.64375 
L 95 623 
Q 95 625 97 625 
z
" style="fill:#ffffff;opacity:0.8;stroke:#cccccc;stroke-linejoin:miter;"/>
    </g>
    <g id="line2d_35">
     <path d="M 99 600.742188 
L 119 600.742188 
" style="fill:none;stroke:#008000;stroke-linecap:square;stroke-width:3;"/>
    </g>
    <g id="line2d_36"/>
    <g id="text_21">
     <!-- 2D coordinate for smiling face -->
     <defs>
      <path d="M 52 44.1875 
Q 55.375 50.25 60.0625 53.125 
Q 64.75 56 71.09375 56 
Q 79.640625 56 84.28125 50.015625 
Q 88.921875 44.046875 88.921875 33.015625 
L 88.921875 0 
L 79.890625 0 
L 79.890625 32.71875 
Q 79.890625 40.578125 77.09375 44.375 
Q 74.3125 48.1875 68.609375 48.1875 
Q 61.625 48.1875 57.5625 43.546875 
Q 53.515625 38.921875 53.515625 30.90625 
L 53.515625 0 
L 44.484375 0 
L 44.484375 32.71875 
Q 44.484375 40.625 41.703125 44.40625 
Q 38.921875 48.1875 33.109375 48.1875 
Q 26.21875 48.1875 22.15625 43.53125 
Q 18.109375 38.875 18.109375 30.90625 
L 18.109375 0 
L 9.078125 0 
L 9.078125 54.6875 
L 18.109375 54.6875 
L 18.109375 46.1875 
Q 21.1875 51.21875 25.484375 53.609375 
Q 29.78125 56 35.6875 56 
Q 41.65625 56 45.828125 52.96875 
Q 50 49.953125 52 44.1875 
z
" id="DejaVuSans-6d"/>
     </defs>
     <g transform="translate(127 604.242188)scale(0.1 -0.1)">
      <use xlink:href="#DejaVuSans-32"/>
      <use x="63.623047" xlink:href="#DejaVuSans-44"/>
      <use x="140.625" xlink:href="#DejaVuSans-20"/>
      <use x="172.412109" xlink:href="#DejaVuSans-63"/>
      <use x="227.392578" xlink:href="#DejaVuSans-6f"/>
      <use x="288.574219" xlink:href="#DejaVuSans-6f"/>
      <use x="349.755859" xlink:href="#DejaVuSans-72"/>
      <use x="390.853516" xlink:href="#DejaVuSans-64"/>
      <use x="454.330078" xlink:href="#DejaVuSans-69"/>
      <use x="482.113281" xlink:href="#DejaVuSans-6e"/>
      <use x="545.492188" xlink:href="#DejaVuSans-61"/>
      <use x="606.771484" xlink:href="#DejaVuSans-74"/>
      <use x="645.980469" xlink:href="#DejaVuSans-65"/>
      <use x="707.503906" xlink:href="#DejaVuSans-20"/>
      <use x="739.291016" xlink:href="#DejaVuSans-66"/>
      <use x="774.496094" xlink:href="#DejaVuSans-6f"/>
      <use x="835.677734" xlink:href="#DejaVuSans-72"/>
      <use x="876.791016" xlink:href="#DejaVuSans-20"/>
      <use x="908.578125" xlink:href="#DejaVuSans-73"/>
      <use x="960.677734" xlink:href="#DejaVuSans-6d"/>
      <use x="1058.089844" xlink:href="#DejaVuSans-69"/>
      <use x="1085.873047" xlink:href="#DejaVuSans-6c"/>
      <use x="1113.65625" xlink:href="#DejaVuSans-69"/>
      <use x="1141.439453" xlink:href="#DejaVuSans-6e"/>
      <use x="1204.818359" xlink:href="#DejaVuSans-67"/>
      <use x="1268.294922" xlink:href="#DejaVuSans-20"/>
      <use x="1300.082031" xlink:href="#DejaVuSans-66"/>
      <use x="1335.287109" xlink:href="#DejaVuSans-61"/>
      <use x="1396.566406" xlink:href="#DejaVuSans-63"/>
      <use x="1451.546875" xlink:href="#DejaVuSans-65"/>
     </g>
    </g>
    <g id="line2d_37">
     <path d="M 99 615.420313 
L 119 615.420313 
" style="fill:none;stroke:#ff0000;stroke-linecap:square;stroke-width:3;"/>
    </g>
    <g id="line2d_38"/>
    <g id="text_22">
     <!-- 2D coordinate for not smiling face -->
     <g transform="translate(127 618.920313)scale(0.1 -0.1)">
      <use xlink:href="#DejaVuSans-32"/>
      <use x="63.623047" xlink:href="#DejaVuSans-44"/>
      <use x="140.625" xlink:href="#DejaVuSans-20"/>
      <use x="172.412109" xlink:href="#DejaVuSans-63"/>
      <use x="227.392578" xlink:href="#DejaVuSans-6f"/>
      <use x="288.574219" xlink:href="#DejaVuSans-6f"/>
      <use x="349.755859" xlink:href="#DejaVuSans-72"/>
      <use x="390.853516" xlink:href="#DejaVuSans-64"/>
      <use x="454.330078" xlink:href="#DejaVuSans-69"/>
      <use x="482.113281" xlink:href="#DejaVuSans-6e"/>
      <use x="545.492188" xlink:href="#DejaVuSans-61"/>
      <use x="606.771484" xlink:href="#DejaVuSans-74"/>
      <use x="645.980469" xlink:href="#DejaVuSans-65"/>
      <use x="707.503906" xlink:href="#DejaVuSans-20"/>
      <use x="739.291016" xlink:href="#DejaVuSans-66"/>
      <use x="774.496094" xlink:href="#DejaVuSans-6f"/>
      <use x="835.677734" xlink:href="#DejaVuSans-72"/>
      <use x="876.791016" xlink:href="#DejaVuSans-20"/>
      <use x="908.578125" xlink:href="#DejaVuSans-6e"/>
      <use x="971.957031" xlink:href="#DejaVuSans-6f"/>
      <use x="1033.138672" xlink:href="#DejaVuSans-74"/>
      <use x="1072.347656" xlink:href="#DejaVuSans-20"/>
      <use x="1104.134766" xlink:href="#DejaVuSans-73"/>
      <use x="1156.234375" xlink:href="#DejaVuSans-6d"/>
      <use x="1253.646484" xlink:href="#DejaVuSans-69"/>
      <use x="1281.429688" xlink:href="#DejaVuSans-6c"/>
      <use x="1309.212891" xlink:href="#DejaVuSans-69"/>
      <use x="1336.996094" xlink:href="#DejaVuSans-6e"/>
      <use x="1400.375" xlink:href="#DejaVuSans-67"/>
      <use x="1463.851562" xlink:href="#DejaVuSans-20"/>
      <use x="1495.638672" xlink:href="#DejaVuSans-66"/>
      <use x="1530.84375" xlink:href="#DejaVuSans-61"/>
      <use x="1592.123047" xlink:href="#DejaVuSans-63"/>
      <use x="1647.103516" xlink:href="#DejaVuSans-65"/>
     </g>
    </g>
   </g>
  </g>
 </g>
 <defs>
  <clipPath id="p713c3e34ff">
   <rect height="543.6" width="558" x="90" y="86.4"/>
  </clipPath>
 </defs>
</svg>
